<svg xmlns="http://www.w3.org/2000/svg" width="640" height="360" viewBox="0 0 640 360">
  <defs>
    <linearGradient id="wood" x1="0" y1="0" x2="1" y2="1">
      <stop offset="0" stop-color="#4b3422"/>
      <stop offset="0.55" stop-color="#20150f"/>
      <stop offset="1" stop-color="#080909"/>
    </linearGradient>
    <linearGradient id="inside" x1="0" y1="0" x2="0" y2="1">
      <stop offset="0" stop-color="#15100d"/>
      <stop offset="1" stop-color="#080909"/>
    </linearGradient>
    <filter id="soft"><feGaussianBlur stdDeviation="2"/></filter>
  </defs>
  <rect width="640" height="360" fill="none"/>
  <ellipse cx="332" cy="292" rx="228" ry="34" fill="#080909" opacity="0.22" filter="url(#soft)"/>
  <path d="M136 126 L476 78 L548 158 L198 224 Z" fill="#2a1d14"/>
  <path d="M154 136 L470 92 L522 152 L204 204 Z" fill="url(#wood)"/>
  <path d="M196 224 L548 158 L536 266 L170 314 Z" fill="url(#wood)"/>
  <path d="M92 172 L196 224 L170 314 L82 248 Z" fill="#15100d"/>
  <path d="M92 172 L438 112 L548 158 L196 224 Z" fill="#0b0d0c"/>
  <path d="M132 178 L428 128 L504 160 L204 208 Z" fill="url(#inside)"/>
  <path d="M204 208 C278 178 376 174 488 158" stroke="#5f563e" stroke-width="16" opacity="0.32" fill="none"/>
  <path d="M206 250 L498 208" stroke="#8a6a3a" stroke-width="5" opacity="0.44"/>
  <path d="M194 282 L520 238" stroke="#080909" stroke-width="8" opacity="0.35"/>
  <g stroke="#8a6a3a" stroke-width="8" opacity="0.55" fill="none">
    <path d="M132 178 L196 224 L548 158"/>
    <path d="M198 224 L170 314"/>
    <path d="M548 158 L536 266"/>
    <path d="M318 204 L300 296"/>
    <path d="M448 178 L434 280"/>
  </g>
  <rect x="292" y="226" width="56" height="44" rx="4" fill="#151819" opacity="0.92"/>
  <path d="M310 238 L332 236 L334 260 L308 262 Z" fill="#080909"/>
  <rect x="444" y="94" width="48" height="34" rx="4" transform="rotate(9 468 111)" fill="#151819" opacity="0.88"/>
  <path d="M188 204 C258 180 366 168 480 152" stroke="#d8c9a5" stroke-width="5" opacity="0.20" fill="none"/>
  <path d="M294 190 C322 178 354 178 386 184 C358 202 326 206 294 190 Z" fill="#7e2e28" opacity="0.34"/>
</svg>
