<svg xmlns="http://www.w3.org/2000/svg" width="1280" height="720" viewBox="0 0 1280 720">
  <defs>
    <linearGradient id="yard" x1="0" y1="0" x2="0" y2="1">
      <stop offset="0" stop-color="#e0d0aa"/>
      <stop offset="0.48" stop-color="#8c8872"/>
      <stop offset="1" stop-color="#191817"/>
    </linearGradient>
    <filter id="soft" x="-10%" y="-10%" width="120%" height="120%"><feGaussianBlur stdDeviation="5"/></filter>
  </defs>
  <rect width="1280" height="720" fill="url(#yard)"/>
  <rect width="1280" height="720" fill="#111" opacity="0.08"/>
  <ellipse cx="348" cy="216" rx="260" ry="76" fill="#5e665e" opacity="0.18" filter="url(#soft)"/>
  <ellipse cx="934" cy="188" rx="300" ry="82" fill="#4b5654" opacity="0.16" filter="url(#soft)"/>
  <path d="M0 330 C220 282 420 344 652 304 C882 262 1062 332 1280 286 L1280 506 L0 514 Z" fill="#5b6760" opacity="0.30"/>
  <path d="M0 510 C250 462 500 548 770 500 C1014 456 1108 546 1280 498 L1280 720 L0 720 Z" fill="#171614" opacity="0.76"/>
  <path d="M190 434 L1096 428" stroke="#241d17" stroke-width="8" opacity="0.44"/>
  <path d="M264 392 L1004 386" stroke="#2b2118" stroke-width="5" opacity="0.28"/>
  <path d="M312 472 L980 466" stroke="#0c0d0c" stroke-width="10" opacity="0.34"/>
  <path d="M250 350 L250 472 M1030 348 L1030 470" stroke="#151612" stroke-width="11" stroke-linecap="round" opacity="0.64"/>
  <path d="M226 350 L286 350 M1006 348 L1066 348" stroke="#151612" stroke-width="10" stroke-linecap="round" opacity="0.64"/>
  <path d="M512 376 C570 346 642 348 704 374 C646 394 574 398 512 376 Z" fill="#161512" opacity="0.34"/>
  <path d="M728 362 C786 334 858 340 922 368 C858 386 790 390 728 362 Z" fill="#161512" opacity="0.30"/>
  <path d="M104 596 L338 550" stroke="#060707" stroke-width="15" stroke-linecap="round" opacity="0.80"/>
  <path d="M934 590 L1218 540" stroke="#060707" stroke-width="16" stroke-linecap="round" opacity="0.82"/>
  <path d="M156 548 L208 706 L136 706 Z M1112 528 L1174 706 L1088 706 Z" fill="#050606" opacity="0.88"/>
  <path d="M80 656 C270 618 454 676 646 630 C848 584 1020 664 1240 612" stroke="#111" stroke-width="6" stroke-linecap="round" opacity="0.36" fill="none"/>
  <rect width="1280" height="720" fill="#050606" opacity="0.06"/>
</svg>
