<svg xmlns="http://www.w3.org/2000/svg" width="1280" height="720" viewBox="0 0 1280 720">
  <defs>
    <linearGradient id="night" x1="0" y1="0" x2="0" y2="1"><stop offset="0" stop-color="#0f1313"/><stop offset="0.46" stop-color="#283033"/><stop offset="1" stop-color="#080909"/></linearGradient>
    <radialGradient id="fire" cx="78%" cy="39%" r="46%"><stop offset="0" stop-color="#8f2f27" stop-opacity="0.46"/><stop offset="0.55" stop-color="#3a1715" stop-opacity="0.22"/><stop offset="1" stop-color="#050606" stop-opacity="0"/></radialGradient>
    <filter id="blur" x="-10%" y="-10%" width="120%" height="120%"><feGaussianBlur stdDeviation="7"/></filter>
  </defs>
  <rect width="1280" height="720" fill="url(#night)"/>
  <rect width="1280" height="720" fill="url(#fire)"/>
  <path d="M0 288 C165 238 328 286 488 248 C680 202 832 270 1000 230 C1110 204 1190 214 1280 190 L1280 418 L0 432 Z" fill="#29383b" opacity="0.44"/>
  <path d="M0 390 C180 340 344 402 538 360 C734 316 895 386 1088 344 C1170 326 1230 330 1280 320 L1280 516 L0 520 Z" fill="#151c1e" opacity="0.62"/>
  <ellipse cx="912" cy="292" rx="210" ry="72" fill="#2a2f2e" opacity="0.32" filter="url(#blur)"/>
  <ellipse cx="1046" cy="266" rx="158" ry="56" fill="#64241f" opacity="0.24" filter="url(#blur)"/>
  <path d="M70 474 C260 414 420 514 620 456 C830 398 1018 506 1280 430 L1280 720 L0 720 Z" fill="#060808" opacity="0.90"/>
  <!-- distant burning village and black tide -->
  <path d="M980 318 L1036 292 L1094 322 Z M1048 328 L1106 300 L1184 334 Z" fill="#120d0b" opacity="0.66"/>
  <path d="M1014 326 C1024 294 1054 296 1048 260 C1074 290 1090 306 1082 338 Z" fill="#7e2e28" opacity="0.34"/>
  <path d="M0 546 C260 500 424 580 660 528 C868 482 1050 558 1280 510 L1280 720 L0 720 Z" fill="#030404" opacity="0.62"/>
  <!-- master blocks arrow: compact silhouettes kept above combat floor -->
  <path d="M560 382 C598 338 646 338 674 386 L654 516 L574 516 Z" fill="#050606" opacity="0.88"/>
  <circle cx="620" cy="328" r="24" fill="#050606" opacity="0.86"/>
  <path d="M620 368 L748 306" stroke="#060707" stroke-width="17" stroke-linecap="round" opacity="0.92"/>
  <path d="M744 296 L790 280" stroke="#8f2f27" stroke-width="5" stroke-linecap="round" opacity="0.72"/>
  <path d="M784 280 L816 268 L794 292 Z" fill="#8f2f27" opacity="0.70"/>
  <path d="M452 438 C488 412 528 430 540 478 L488 520 L430 504 Z" fill="#050606" opacity="0.64"/>
  <path d="M846 286 L960 522 L880 522 Z M730 258 L782 520 L692 520 Z M810 232 L874 526 L768 526 Z" fill="#060707" opacity="0.70"/>
  <path d="M456 542 L506 706 L438 706 Z M528 512 L580 706 L508 706 Z M1120 500 L1178 706 L1098 706 Z" fill="#030404" opacity="0.94"/>
  <path d="M410 590 L618 528 M998 580 L1236 500" stroke="#050606" stroke-width="17" stroke-linecap="round" opacity="0.88"/>
  <rect width="1280" height="720" fill="#000" opacity="0.08"/>
</svg>
